<?xml version="1.0" encoding="utf-8"?>
<!-- Svg Vector Icons : http://www.onlinewebfonts.com/icon -->
<!DOCTYPE svg PUBLIC "-//W3C//DTD SVG 1.1//EN" "http://www.w3.org/Graphics/SVG/1.1/DTD/svg11.dtd">
<svg version="1.1" xmlns="http://www.w3.org/2000/svg" xmlns:xlink="http://www.w3.org/1999/xlink" x="0px" y="0px" viewBox="0 0 1000 1000" enable-background="new 0 0 1000 1000" xml:space="preserve">
<metadata> Svg Vector Icons : http://www.onlinewebfonts.com/icon </metadata>
<g><g transform="translate(0.000000,511.000000) scale(0.100000,-0.100000)"><path d="M1126.7,1391.5c-206.9-55.5-324.2-108.8-486.3-226.1c-256-181.3-465-499.1-522.6-793.5c-36.3-187.7-14.9-514.1,44.8-684.7c66.1-187.7,236.8-433,392.5-561c70.4-59.7,206.9-147.2,300.8-192C1180-1221.5,913.4-1213,5075-1206.6l3737.1,6.4l170.6,59.7c311.4,110.9,543.9,285.8,710.3,537.5C9857.3-359.7,9900-210.4,9900,111.7c0,224-8.5,290.1-49.1,409.6c-55.5,155.7-170.6,349.8-292.2,484.2c-119.4,132.3-373.3,292.2-571.7,358.4l-174.9,59.7l-3764.9,4.3C1401.9,1432,1278.2,1429.9,1126.7,1391.5z M4812.6,1370.2c0-27.7,14.9-42.7,42.7-42.7c27.7,0,42.7,14.9,42.7,42.7c0,32,14.9,42.7,53.3,42.7c38.4,0,53.3-10.7,53.3-42.7c0-32,14.9-42.7,53.3-42.7c38.4,0,53.3,10.7,53.3,42.7c0,27.7,14.9,42.7,42.7,42.7c27.7,0,42.7-14.9,42.7-42.7c0-32,14.9-42.7,53.3-42.7c38.4,0,53.3,10.7,53.3,42.7c0,27.7,14.9,42.7,42.7,42.7s42.7-14.9,42.7-42.7s-14.9-42.7-42.7-42.7c-32,0-42.7-14.9-42.7-53.3c0-38.4,10.7-53.3,42.7-53.3c27.7,0,42.7-14.9,42.7-42.7c0-27.7-14.9-42.7-42.7-42.7c-32,0-42.7-14.9-42.7-53.3s10.7-53.3,42.7-53.3c27.7,0,42.7-14.9,42.7-42.7s-14.9-42.7-42.7-42.7c-32,0-42.7-14.9-42.7-53.3s10.7-53.3,42.7-53.3c27.7,0,42.7-14.9,42.7-42.7s-14.9-42.7-42.7-42.7c-32,0-42.7-14.9-42.7-53.3c0-42.7-10.7-53.3-53.3-53.3c-42.7,0-53.3,10.7-53.3,53.3c0,70.4-78.9,74.6-89.6,6.4c-4.2-32-23.5-51.2-53.3-55.4c-40.5-6.4-49,2.1-49,46.9s-10.7,55.5-53.3,55.5s-53.3-10.7-53.3-53.3c0-38.4-10.7-53.3-42.7-53.3c-32,0-42.7,14.9-42.7,53.3c0,42.7-10.7,53.3-53.3,53.3s-53.3-10.7-53.3-53.3c0-38.4-10.7-53.3-42.7-53.3s-42.7,14.9-42.7,53.3c0,38.4,10.7,53.3,42.7,53.3c27.7,0,42.7,14.9,42.7,42.7s-14.9,42.7-42.7,42.7c-32,0-42.7,14.9-42.7,53.3s10.7,53.3,42.7,53.3c27.7,0,42.7,14.9,42.7,42.7s-14.9,42.7-42.7,42.7c-32,0-42.7,14.9-42.7,53.3s10.7,53.3,42.7,53.3c27.7,0,42.7,14.9,42.7,42.7c0,27.7-14.9,42.7-42.7,42.7c-32,0-42.7,14.9-42.7,53.3c0,38.4,10.7,53.3,42.7,53.3c27.7,0,42.7,14.9,42.7,42.7c0,32,14.9,42.7,53.3,42.7C4797.7,1412.8,4812.6,1402.2,4812.6,1370.2z M1527.7,1287c0-32-21.3-40.5-110.9-53.3c-170.6-19.2-187.7-17.1-187.7,25.6c0,61.9,17.1,68.3,164.3,68.3C1510.7,1327.5,1527.7,1323.2,1527.7,1287z M2125,1284.9c0-38.4-14.9-42.7-149.3-42.7c-134.4,0-149.3,4.3-149.3,42.7c0,38.4,14.9,42.7,149.3,42.7C2110,1327.5,2125,1323.2,2125,1284.9z M2722.2,1284.9c0-38.4-14.9-42.7-149.3-42.7s-149.3,4.3-149.3,42.7c0,38.4,14.9,42.7,149.3,42.7S2722.2,1323.2,2722.2,1284.9z M3319.5,1284.9c0-38.4-14.9-42.7-149.3-42.7c-134.4,0-149.3,4.3-149.3,42.7c0,38.4,14.9,42.7,149.3,42.7C3304.6,1327.5,3319.5,1323.2,3319.5,1284.9z M3938.1,1284.9c0-38.4-14.9-42.7-160-42.7c-145,0-160,4.3-160,42.7c0,38.4,14.9,42.7,160,42.7C3923.2,1327.5,3938.1,1323.2,3938.1,1284.9z M4535.4,1284.9c0-38.4-14.9-42.7-149.3-42.7s-149.3,4.3-149.3,42.7c0,38.4,14.9,42.7,149.3,42.7S4535.4,1323.2,4535.4,1284.9z M5751.2,1284.9c0-38.4-14.9-42.7-149.3-42.7s-149.3,4.3-149.3,42.7c0,38.4,14.9,42.7,149.3,42.7S5751.2,1323.2,5751.2,1284.9z M6348.4,1284.9c0-38.4-14.9-42.7-149.3-42.7c-134.4,0-149.3,4.3-149.3,42.7c0,38.4,14.9,42.7,149.3,42.7C6333.5,1327.5,6348.4,1323.2,6348.4,1284.9z M6945.7,1284.9c0-38.4-14.9-42.7-149.3-42.7c-134.4,0-149.3,4.3-149.3,42.7c0,38.4,14.9,42.7,149.3,42.7C6930.8,1327.5,6945.7,1323.2,6945.7,1284.9z M7543,1284.9c0-38.4-14.9-42.7-149.3-42.7c-134.4,0-149.3,4.3-149.3,42.7c0,38.4,14.9,42.7,149.3,42.7C7528,1327.5,7543,1323.2,7543,1284.9z M8161.6,1284.9c0-38.4-14.9-42.7-160-42.7c-145,0-160,4.3-160,42.7c0,38.4,14.9,42.7,160,42.7C8146.6,1327.5,8161.6,1323.2,8161.6,1284.9z M8758.8,1272.1c0-55.5-2.1-57.6-110.9-42.7c-61.8,6.4-130.1,12.8-149.3,12.8c-23.5,0-38.4,17.1-38.4,42.7c0,38.4,14.9,42.7,149.3,42.7C8756.7,1327.5,8758.8,1327.5,8758.8,1272.1z M9202.5,1156.9c108.8-64,140.8-117.3,81.1-140.8c-34.1-12.8-247.4,115.2-247.4,151.4c0,25.6,21.3,53.3,40.5,53.3C9083,1220.9,9140.6,1191,9202.5,1156.9z M939,1165.4c8.5-19.2,10.7-38.4,8.5-40.5c-4.3,0-57.6-34.1-119.4-74.7c-104.5-64-117.3-68.3-149.3-36.3c-38.4,40.5-44.8,34.1,89.6,119.5C889.9,1208.1,919.8,1214.5,939,1165.4z M9676,662c42.7-78.9,42.7-78.9-2.1-91.7c-23.5-8.5-46.9-10.7-49.1-6.4c-2.1,2.1-36.3,57.6-74.7,119.4c-68.2,108.8-70.4,113.1-32,142.9c36.3,25.6,44.8,21.3,78.9-27.7C9618.4,766.5,9654.7,704.6,9676,662z M1954.3,783.6c0-51.2-4.3-53.3-149.3-53.3s-149.3,2.1-149.3,53.3s4.3,53.3,149.3,53.3S1954.3,834.8,1954.3,783.6z M2572.9,783.6c0-51.2-4.3-53.3-149.3-53.3s-149.3,2.1-149.3,53.3s4.3,53.3,149.3,53.3S2572.9,834.8,2572.9,783.6z M3170.2,783.6c0-51.2-4.3-53.3-149.3-53.3s-149.3,2.1-149.3,53.3s4.3,53.3,149.3,53.3S3170.2,834.8,3170.2,783.6z M3767.4,783.6c0-51.2-4.3-53.3-149.3-53.3s-149.3,2.1-149.3,53.3s4.3,53.3,149.3,53.3S3767.4,834.8,3767.4,783.6z M4364.7,783.6c0-51.2-4.3-53.3-149.3-53.3s-149.3,2.1-149.3,53.3s4.3,53.3,149.3,53.3S4364.7,834.8,4364.7,783.6z M5815.2,783.6c0-51.2-4.3-53.3-149.3-53.3c-145,0-149.3,2.1-149.3,53.3s4.3,53.3,149.3,53.3C5810.9,836.9,5815.2,834.8,5815.2,783.6z M6429.5,779.3c6.4-46.9,0-49.1-142.9-49.1c-149.3,0-187.7,17.1-164.2,76.8c8.5,25.6,44.8,29.9,155.7,25.6C6410.3,826.2,6423.1,822,6429.5,779.3z M7031,783.6c0-51.2-4.3-53.3-149.3-53.3c-145,0-149.3,2.1-149.3,53.3s4.3,53.3,149.3,53.3C7026.8,836.9,7031,834.8,7031,783.6z M7628.3,783.6c0-51.2-4.3-53.3-149.3-53.3c-145,0-149.3,2.1-149.3,53.3s4.3,53.3,149.3,53.3C7624,836.9,7628.3,834.8,7628.3,783.6z M8225.5,783.6c0-51.2-4.3-53.3-149.3-53.3c-145,0-149.3,2.1-149.3,53.3s4.3,53.3,149.3,53.3C8221.3,836.9,8225.5,834.8,8225.5,783.6z M8792.9,794.2c36.3-14.9,44.8-29.9,36.3-64c-8.5-27.7-23.5-40.5-42.7-34.1c-17.1,8.5-83.2,19.2-147.2,25.6c-89.6,10.7-115.2,23.5-115.2,51.2c0,19.2,6.4,42.7,14.9,51.2C8558.3,841.2,8716.2,822,8792.9,794.2z M478.3,790c32-40.5-100.2-266.6-149.3-256c-21.3,4.3-38.4,14.9-38.4,25.6c0,55.5,115.2,256,147.2,256C448.4,815.6,465.5,802.8,478.3,790z M1361.4,777.2c8.5-32-14.9-46.9-125.9-83.2c-132.2-42.7-136.5-42.7-157.8-4.3c-21.3,42.7-8.5,51.2,151.5,110.9C1295.2,824.1,1352.8,815.6,1361.4,777.2z M8801.5,578.8c202.6-91.7,307.2-249.6,307.2-467.1c0-219.7-104.5-375.4-317.8-471.4c-81.1-38.4-249.6-40.5-3764.9-40.5c-2470.1,0-3705.1,8.5-3758.5,21.3c-113.1,32-253.8,145-315.7,256c-42.7,74.7-53.3,125.9-53.3,234.6c2.1,217.6,106.7,375.4,309.3,467.1c96,42.7,119.5,44.8,3796.9,44.8C8682,623.6,8705.5,621.5,8801.5,578.8z M9179,531.9c83.2-123.7,104.5-185.6,68.3-209.1c-46.9-29.9-57.6-23.5-104.5,61.9c-23.5,42.7-55.4,93.9-68.3,115.2c-19.2,27.7-19.2,42.7,2.1,68.3C9115,615.1,9125.7,610.8,9179,531.9z M864.3,476.4c25.6-17.1,25.6-29.9-4.3-91.7c-17.1-38.4-40.5-96-46.9-128c-14.9-61.9-27.7-68.3-81-46.9c-25.6,8.5-27.7,25.6-10.7,89.6c25.6,96,76.8,196.2,98.1,196.2C828.1,495.6,847.3,487.1,864.3,476.4z M9812.6,194.9c21.3-130.1-2.1-230.4-51.2-217.6c-32,8.5-40.5,36.3-46.9,149.3c-6.4,151.4-6.4,155.7,46.9,155.7C9789.1,282.3,9801.9,256.7,9812.6,194.9z M290.6,88.2C290.6-44,286.3-59,250-59c-34.1,0-44.8,19.2-55.5,93.9c-21.3,136.5,2.1,224,55.5,211.2C284.2,235.4,290.6,216.2,290.6,88.2z M9287.8-29.1c6.4-49.1-70.4-243.2-96-243.2c-8.5,0-29.9,8.5-46.9,19.2c-25.6,17.1-25.6,29.8,4.3,91.7c17.1,38.4,40.5,98.1,46.9,130.1C9215.3,39.1,9277.1,41.3,9287.8-29.1z M838.7-116.6c8.5-21.3,38.4-74.7,66.1-119.4c49.1-74.7,51.2-83.2,19.2-115.2c-32-32-38.4-29.9-76.8,17.1c-23.5,27.7-59.7,87.5-78.9,132.2c-32,70.4-34.1,85.3-6.4,102.4C806.8-71.8,823.8-76,838.7-116.6z M9718.7-344.8c0-34.1-125.9-247.4-145-247.4c-8.5,0-27.7,10.7-42.7,25.6c-36.3,36.3,98.1,270.9,149.3,256C9701.6-315,9718.7-329.9,9718.7-344.8z M456.9-455.7c64-110.9,66.1-121.6,32-147.2c-42.7-32-76.8,2.1-151.4,153.6c-44.8,87.5-40.5,106.7,27.7,110.9C378-338.4,418.5-391.7,456.9-455.7z M8929.5-464.3c21.3-38.4,14.9-46.9-55.4-76.8c-44.8-19.2-110.9-38.4-147.2-44.8c-55.4-8.5-70.4-2.1-78.9,32c-10.7,36.3,2.1,46.9,76.8,66.1c46.9,12.8,102.4,32,119.4,44.8C8891.1-413.1,8903.9-417.3,8929.5-464.3z M1374.1-498.4c76.8-12.8,89.6-21.3,89.6-66.1c0-51.2-4.3-53.3-100.3-38.4c-157.8,23.5-196.2,44.8-183.4,96c8.5,34.1,23.5,42.7,57.6,34.1C1261.1-481.3,1322.9-492,1374.1-498.4z M2082.3-560.3c0-51.2-4.3-53.3-149.3-53.3s-149.3,2.1-149.3,53.3s4.3,53.3,149.3,53.3S2082.3-509.1,2082.3-560.3z M2679.6-560.3c0-51.2-4.3-53.3-149.3-53.3s-149.3,2.1-149.3,53.3s4.3,53.3,149.3,53.3S2679.6-509.1,2679.6-560.3z M3276.8-560.3c0-51.2-4.3-53.3-149.3-53.3c-145,0-149.3,2.1-149.3,53.3s4.3,53.3,149.3,53.3C3272.6-506.9,3276.8-509.1,3276.8-560.3z M3874.1-560.3c0-55.4-2.1-55.4-142.9-49.1c-132.2,6.4-145,10.7-151.4,55.4c-6.4,44.8,0,46.9,142.9,46.9C3869.8-506.9,3874.1-509.1,3874.1-560.3z M4488.4-553.9c-6.4-44.8-19.2-49.1-149.3-55.4c-142.9-6.4-145-6.4-145,49.1c0,51.2,4.3,53.3,151.5,53.3C4488.4-506.9,4494.8-509.1,4488.4-553.9z M5324.6-560.3v-53.3h-277.3H4770v53.3v53.3h277.3h277.3V-560.3z M5943.2-560.3c0-51.2-4.3-53.3-149.3-53.3c-145,0-149.3,2.1-149.3,53.3s4.3,53.3,149.3,53.3C5938.9-506.9,5943.2-509.1,5943.2-560.3z M6540.4-560.3c0-51.2-4.3-53.3-149.3-53.3c-145,0-149.3,2.1-149.3,53.3s4.3,53.3,149.3,53.3C6536.2-506.9,6540.4-509.1,6540.4-560.3z M7137.7-560.3c0-51.2-4.3-53.3-149.3-53.3c-145,0-149.3,2.1-149.3,53.3s4.3,53.3,149.3,53.3C7133.4-506.9,7137.7-509.1,7137.7-560.3z M7734.9-560.3c0-51.2-4.3-53.3-149.3-53.3c-145,0-149.3,2.1-149.3,53.3s4.3,53.3,149.3,53.3C7730.7-506.9,7734.9-509.1,7734.9-560.3z M8349.3-553.9c-6.4-44.8-17.1-49.1-155.7-49.1c-138.7,0-149.3,4.3-155.7,49.1c-6.4,44.8-2.1,46.9,155.7,46.9C8351.4-506.9,8355.7-509.1,8349.3-553.9z M9334.7-792.8c19.2-25.6,8.5-42.7-64-96c-113-81.1-170.6-100.2-194.1-64c-27.7,44.8-27.7,46.9,93.8,119.5C9298.5-754.4,9300.6-752.2,9334.7-792.8z M864.3-850.3c104.5-66.1,132.3-108.8,87.5-136.5c-21.3-12.8-123.7,32-219.7,100.3c-46.9,34.1-53.3,49.1-34.1,72.5C732.1-773.6,742.8-775.7,864.3-850.3z M1470.1-1010.3c59.7-10.7,78.9-23.5,78.9-55.5c0-36.3-14.9-40.5-142.9-34.1c-132.2,6.4-145,10.7-151.4,55.4c-6.4,40.5,2.1,46.9,64,46.9C1357.1-997.5,1425.3-1003.9,1470.1-1010.3z M8780.1-1038.1c0-51.2-40.5-66.1-183.4-66.1c-100.3,0-115.2,6.4-115.2,40.5c0,46.9,38.4,59.7,198.4,64C8765.2-997.5,8780.1-1003.9,8780.1-1038.1z M2167.6-1061.5c0-38.4-14.9-42.7-160-42.7s-160,4.3-160,42.7c0,38.4,14.9,42.7,160,42.7S2167.6-1023.1,2167.6-1061.5z M2764.9-1061.5c0-38.4-14.9-42.7-149.3-42.7s-149.3,4.3-149.3,42.7c0,38.4,14.9,42.7,149.3,42.7S2764.9-1023.1,2764.9-1061.5z M3362.2-1061.5c0-38.4-14.9-42.7-149.3-42.7c-134.4,0-149.3,4.3-149.3,42.7c0,38.4,14.9,42.7,149.3,42.7C3347.2-1018.9,3362.2-1023.1,3362.2-1061.5z M3959.4-1061.5c0-38.4-14.9-42.7-149.3-42.7c-134.4,0-149.3,4.3-149.3,42.7c0,38.4,14.9,42.7,149.3,42.7C3944.5-1018.9,3959.4-1023.1,3959.4-1061.5z M4556.7-1061.5c0-38.4-14.9-42.7-149.3-42.7c-134.4,0-149.3,4.3-149.3,42.7c0,38.4,14.9,42.7,149.3,42.7C4541.7-1018.9,4556.7-1023.1,4556.7-1061.5z M5175.3-1061.5c0-38.4-14.9-42.7-149.3-42.7c-134.4,0-149.3,4.3-149.3,42.7c0,38.4,14.9,42.7,149.3,42.7C5160.3-1018.9,5175.3-1023.1,5175.3-1061.5z M5772.5-1061.5c0-38.4-14.9-42.7-149.3-42.7c-134.4,0-149.3,4.3-149.3,42.7c0,38.4,14.9,42.7,149.3,42.7C5757.6-1018.9,5772.5-1023.1,5772.5-1061.5z M6369.8-1061.5c0-38.4-14.9-42.7-149.3-42.7c-134.4,0-149.3,4.3-149.3,42.7c0,38.4,14.9,42.7,149.3,42.7C6354.8-1018.9,6369.8-1023.1,6369.8-1061.5z M6988.4-1061.5c0-38.4-14.9-42.7-149.3-42.7s-149.3,4.3-149.3,42.7c0,38.4,14.9,42.7,149.3,42.7S6988.4-1023.1,6988.4-1061.5z M7585.6-1061.5c0-38.4-14.9-42.7-149.3-42.7c-134.4,0-149.3,4.3-149.3,42.7c0,38.4,14.9,42.7,149.3,42.7C7570.7-1018.9,7585.6-1023.1,7585.6-1061.5z M8182.9-1061.5c0-38.4-14.9-42.7-149.3-42.7c-134.4,0-149.3,4.3-149.3,42.7c0,38.4,14.9,42.7,149.3,42.7C8167.9-1018.9,8182.9-1023.1,8182.9-1061.5z"/><path d="M4706,1274.2c0-42.7,10.7-53.3,53.3-53.3c38.4,0,53.3-10.7,53.3-42.7c0-32-14.9-42.7-53.3-42.7c-42.7,0-53.3-10.7-53.3-53.3c0-42.7,10.7-53.3,53.3-53.3c38.4,0,53.3-10.7,53.3-42.7s-14.9-42.7-53.3-42.7c-42.7,0-53.3-10.7-53.3-53.3c0-42.7,10.7-53.3,53.3-53.3c38.4,0,53.3-10.7,53.3-42.7c0-27.7,14.9-42.7,42.7-42.7c27.7,0,42.7,14.9,42.7,42.7c0,32,14.9,42.7,53.3,42.7c38.4,0,53.3-10.7,53.3-42.7c0-32,14.9-42.7,53.3-42.7c38.4,0,53.3,10.7,53.3,42.7c0,27.7,14.9,42.7,42.7,42.7c27.7,0,42.7-14.9,42.7-42.7c0-32,14.9-42.7,53.3-42.7c38.4,0,53.3,10.7,53.3,42.7c0,32-14.9,42.7-53.3,42.7c-42.7,0-53.3,10.7-53.3,53.3c0,42.7,10.7,53.3,53.3,53.3c38.4,0,53.3,10.7,53.3,42.7s-14.9,42.7-53.3,42.7c-42.7,0-53.3,10.7-53.3,53.3c0,42.7,10.7,53.3,53.3,53.3c38.4,0,53.3,10.7,53.3,42.7c0,32-14.9,42.7-53.3,42.7c-42.7,0-53.3,10.7-53.3,53.3c0,38.4-10.7,53.3-42.7,53.3c-32,0-42.7-14.9-42.7-53.3c0-42.7-10.7-53.3-53.3-53.3c-42.6,0-53.3,10.7-53.3,53.3c0,42.7-10.7,53.3-53.3,53.3s-53.3-10.7-53.3-53.3c0-38.4-10.7-53.3-42.7-53.3c-32,0-42.7,14.9-42.7,53.3c0,42.7-10.7,53.3-53.3,53.3S4706,1316.8,4706,1274.2z M5004.6,1178.2c0-32,14.9-42.7,53.3-42.7c38.4,0,53.3,10.7,53.3,42.7c0,27.7,14.9,42.7,42.7,42.7c27.7,0,42.7-14.9,42.7-42.7c0-27.7-14.9-42.7-42.7-42.7c-32,0-42.7-14.9-42.7-53.3s10.7-53.3,42.7-53.3c27.7,0,42.7-14.9,42.7-42.7s-14.9-42.7-42.7-42.7c-32,0-42.7-14.9-42.7-53.3c0-42.7-10.7-53.3-53.3-53.3c-42.6,0-53.3,10.7-53.3,53.3c0,42.7-10.7,53.3-53.3,53.3s-53.3-10.7-53.3-53.3c0-38.4-10.7-53.3-42.7-53.3c-32,0-42.7,14.9-42.7,53.3s10.7,53.3,42.7,53.3c27.7,0,42.7,14.9,42.7,42.7s-14.9,42.7-42.7,42.7c-32,0-42.7,14.9-42.7,53.3s10.7,53.3,42.7,53.3c27.7,0,42.7,14.9,42.7,42.7c0,32,14.9,42.7,53.3,42.7C4989.7,1220.9,5004.6,1210.2,5004.6,1178.2z"/><path d="M4898,1082.2c0-42.7,10.7-53.3,53.3-53.3c38.4,0,53.3-10.7,53.3-42.7s14.9-42.7,53.3-42.7c38.4,0,53.3,10.7,53.3,42.7s-14.9,42.7-53.3,42.7c-42.6,0-53.3,10.7-53.3,53.3c0,42.7-10.7,53.3-53.3,53.3S4898,1124.9,4898,1082.2z"/></g></g>
</svg>